<?xml version="1.0" encoding="utf-8"?>
<!-- Generator: Adobe Illustrator 25.1.0, SVG Export Plug-In . SVG Version: 6.00 Build 0)  -->
<svg version="1.1" id="Layer_1" xmlns="http://www.w3.org/2000/svg" xmlns:xlink="http://www.w3.org/1999/xlink" x="0px" y="0px"
	 viewBox="0 0 378 77" style="enable-background:new 0 0 378 77;" xml:space="preserve">
<style type="text/css">
	.st0{fill:#FFFFFF;}
	.st1{fill:#006EAB;}
	.st2{fill:#0F3659;}
	.st3{fill:none;}
	.st4{fill:#231F20;}
	.st5{font-family:'Helvetica';}
	.st6{font-size:5.3541px;}
	.st7{fill:#898989;}
	.st8{font-family:'Poppins-Medium';}
	.st9{font-size:24px;}
</style>
<g>
	<path class="st0" d="M181.7,22.6c0-1.1,0.7-2.3,1.7-2.9l24.5-14.1c0.9-0.5,2.4-0.5,3.3,0l24.5,14.1c0.9,0.5,1.7,1.8,1.7,2.9v28.3
		c0,1.1-0.7,2.3-1.7,2.9l-24.5,14.1c-0.9,0.5-2.4,0.5-3.3,0l-24.5-14.1c-0.9-0.5-1.7-1.8-1.7-2.9V22.6z"/>
</g>
<g>
	<path class="st1" d="M197.5,23.8c-0.8-0.6-2.4-1.1-3.4-1.1h-0.2c-1,0-1.9,0.9-1.9,1.9V57c0,1-0.7,1.5-1.6,1l-7.1-4.1
		c-0.9-0.5-1.6-1.8-1.6-2.9V22.6c0-1,0.7-2.3,1.6-2.9l24.6-14.2c0.9-0.5,2.4-0.5,3.3,0l10.7,6.2c0.9,0.5,1.6,1.8,1.6,2.9V41
		c0,1-0.7,1.4-1.5,0.8L197.5,23.8z"/>
</g>
<g>
	<path class="st2" d="M235.7,19.7c0.9,0.5,1.6,1.8,1.6,2.9V51c0,1-0.7,2.3-1.6,2.9L211.1,68c-0.9,0.5-2.4,0.5-3.3,0l-10.2-5.9
		c-0.9-0.5-1.6-1.8-1.6-2.9V30.6c0-1,0.7-1.4,1.5-0.8l24.4,18.1c0.8,0.6,2.4,1.1,3.4,1.1h0.2c1,0,1.9-0.9,1.9-1.9V16.9
		c0-1,0.7-1.5,1.6-1L235.7,19.7z"/>
</g>
<g>
	<path class="st2" d="M271.1,48.9h-2.6l-12.2-19.6v19.6h-2.5V24.4h2.5L268.6,44V24.4h2.6V48.9z"/>
	<path class="st2" d="M278.9,25.5c0,0.4-0.1,0.7-0.4,1c-0.3,0.3-0.6,0.4-1,0.4c-0.4,0-0.7-0.1-1-0.4c-0.3-0.3-0.4-0.6-0.4-1
		c0-0.4,0.1-0.7,0.4-1c0.3-0.3,0.6-0.4,1-0.4c0.4,0,0.7,0.1,1,0.4C278.7,24.7,278.9,25.1,278.9,25.5z M278.7,48.9h-2.5V31.4h2.5
		V48.9z"/>
	<path class="st2" d="M294.4,32.8c2-1.1,3.9-1.7,5.6-1.7c1.7,0,3,0.5,4,1.6c1,1.1,1.5,2.4,1.5,4.1v12.1H303V37.3c0-2-0.7-3.2-2-3.7
		c-0.5-0.1-0.9-0.2-1.2-0.2c-0.3,0-0.7,0-1.1,0c-0.4,0-1,0.2-1.8,0.5l-1.1,0.5c0.3,0.7,0.5,1.4,0.5,2.2v12.2h-2.5V37.4
		c0-1.1-0.3-2-0.8-2.6c-0.7-0.9-1.6-1.3-2.9-1.3c-1.3,0-2.6,0.4-3.8,1.1v14.5h-2.5V31.4h2.4l0,0.9c1.3-0.7,2.8-1.1,4.4-1.1
		C292,31.1,293.3,31.7,294.4,32.8z"/>
	<path class="st2" d="M312.6,32c1.1-0.6,2.3-0.9,3.8-0.9c1.4,0,2.6,0.2,3.7,0.7c2,0.9,3,2.6,3,5.1v6.6c0,2.3-0.9,3.9-2.7,4.9
		c-1.4,0.7-2.9,1.1-4.6,1.1c-1.7,0-3.6-0.1-5.6-0.4V24.4h2.5V32z M320.5,43.5v-6.3c0-1.1-0.3-2-0.9-2.6c-0.7-0.7-1.7-1.1-3-1.1
		l-1.8,0.2c-0.9,0.2-1.6,0.5-2.2,0.8v12.3c1.2,0.2,2.1,0.2,2.6,0.2c0.6,0,0.9,0,1,0c1.2,0,2.2-0.3,3-0.9
		C320.1,45.4,320.5,44.6,320.5,43.5z"/>
	<path class="st2" d="M339.8,48.9h-2.4v-1.3c-1,1.1-2.4,1.7-4.1,1.7c-4.4,0-6.6-2.1-6.6-6.4V31.4h2.5v11.5c0,2.7,1.4,4,4.1,4
		c2.6,0,4-1.4,4-4.1V31.4h2.5V48.9z"/>
	<path class="st2" d="M343.5,44.5l2.5-0.1c0.1,0.9,0.5,1.5,1.3,2c0.8,0.5,1.7,0.7,2.7,0.7c1,0,1.9-0.2,2.6-0.7
		c0.7-0.5,1.1-1.1,1.1-2c0-0.9-0.3-1.5-0.9-2c-0.6-0.5-1.4-0.9-2.3-1.2c-0.9-0.3-1.8-0.6-2.8-0.9c-0.9-0.3-1.7-0.8-2.4-1.5
		c-0.9-0.8-1.3-1.8-1.3-3c0-1.2,0.5-2.3,1.4-3.3c0.9-1,2.5-1.5,4.6-1.5c0.7,0,1.4,0.1,2.1,0.3c0.7,0.2,1.1,0.3,1.4,0.5l0.4,0.2
		l-0.8,2.2c-0.7-0.6-1.7-0.9-2.9-0.9c-1.2,0-2.1,0.2-2.7,0.7c-0.6,0.5-0.9,1-0.9,1.7c0,0.8,0.4,1.4,1.1,1.8c0.7,0.4,1.6,0.8,2.5,1.1
		c0.9,0.3,1.9,0.6,2.8,1c0.9,0.4,1.7,1,2.3,1.8c0.6,0.8,1,1.8,1,3.2c0,1.3-0.5,2.4-1.6,3.4c-1.1,1-2.6,1.5-4.6,1.5
		c-2,0-3.6-0.5-4.8-1.4C344.1,47.1,343.5,45.9,343.5,44.5z"/>
</g>
<rect x="358.6" y="21" class="st3" width="9.8" height="6"/>
<text transform="matrix(1 0 0 1 358.6328 24.8633)" class="st4 st5 st6">TM</text>
<rect x="-0.4" y="27" class="st3" width="163.4" height="29"/>
<text transform="matrix(1 0 0 1 11.3164 44.8076)" class="st7 st8 st9">Powered By</text>
</svg>
